<svg width="11" height="11" viewBox="0 0 11 11" fill="none" xmlns="http://www.w3.org/2000/svg">
<g clip-path="url(#clip0_566_533)">
<path d="M9.38945 1.61085C7.24154 -0.53683 3.759 -0.537069 1.61085 1.61085C-0.537069 3.75876 -0.53683 7.2413 1.61085 9.38945C3.75876 11.5369 7.2413 11.5371 9.38945 9.38945C11.5371 7.2413 11.5369 3.759 9.38945 1.61085ZM6.21732 7.89151C6.21732 8.08177 6.14173 8.26425 6.00719 8.39879C5.87265 8.53333 5.69018 8.60891 5.49991 8.60891C5.30964 8.60891 5.12717 8.53333 4.99263 8.39879C4.85809 8.26425 4.7825 8.08177 4.7825 7.89151V5.02188C4.7825 4.83161 4.85809 4.64914 4.99263 4.5146C5.12717 4.38006 5.30964 4.30447 5.49991 4.30447C5.69018 4.30447 5.87265 4.38006 6.00719 4.5146C6.14173 4.64914 6.21732 4.83161 6.21732 5.02188V7.89151ZM5.48724 3.79559C5.07401 3.79559 4.79853 3.50289 4.80713 3.14155C4.79853 2.76276 5.07401 2.47891 5.49561 2.47891C5.91744 2.47891 6.18432 2.763 6.19316 3.14155C6.19293 3.50289 5.91768 3.79559 5.48724 3.79559Z" fill="#ABFF23"/>
</g>
<defs>
<clipPath id="clip0_566_533">
<rect width="11" height="11" fill="white"/>
</clipPath>
</defs>
</svg>
