<svg width="26" height="26" viewBox="0 0 26 26" fill="none" xmlns="http://www.w3.org/2000/svg">
<circle cx="13" cy="13" r="12.65" stroke="#ABFF23" stroke-width="0.7"/>
<g clip-path="url(#clip0_566_525)">
<path d="M18.7986 12.4626L16.9799 10.644V8.54311C16.9799 8.16325 16.6721 7.8554 16.2917 7.8554C15.9121 7.8554 15.6043 8.16325 15.6043 8.54311V9.26837L14.2502 7.91419C13.5807 7.24505 12.4166 7.24624 11.7487 7.9154L7.20133 12.4626C6.93289 12.7316 6.93289 13.1668 7.20133 13.4354C7.46989 13.7043 7.90595 13.7043 8.17441 13.4354L12.7213 8.88802C12.8694 8.74068 13.1305 8.74068 13.2779 8.88759L17.8255 13.4354C17.8894 13.4993 17.9652 13.55 18.0487 13.5845C18.1321 13.6191 18.2216 13.6368 18.3119 13.6367C18.4881 13.6367 18.6642 13.5698 18.7986 13.4354C19.0671 13.1668 19.0671 12.7316 18.7986 12.4626Z" fill="#ABFF23"/>
<path d="M13.2389 10.1935C13.1068 10.0614 12.8929 10.0614 12.7611 10.1935L8.7613 14.1921C8.69793 14.2556 8.66234 14.3417 8.66235 14.4314V17.3479C8.66235 18.0322 9.21725 18.5871 9.9016 18.5871H11.8819V15.5202H14.1177V18.5871H16.098C16.7823 18.5871 17.3372 18.0322 17.3372 17.3479V14.4314C17.3372 14.3414 17.3018 14.2553 17.2383 14.1921L13.2389 10.1935Z" fill="#ABFF23"/>
</g>
<defs>
<clipPath id="clip0_566_525">
<rect width="12" height="12" fill="white" transform="translate(7 7)"/>
</clipPath>
</defs>
</svg>
